PathFileType	4	(X/Y/Z)	./resultDataOpenSim/trcMotMarkerGrf/sub10/qtm-01-08.trc
DataRate	CameraRate	NumFrames	NumMarkers	Units	OrigDataRate	OrigDataStartFrame	OrigNumFrames
250.000000	250.000000	14	24	m	250.000000	164	435
Frame#	Time	L.Toe.Tip			R.Toe.Tip			L.Ankle.Lat			R.Ankle.Lat			L.Ankle.Med			R.Ankle.Med			L.Heel			R.Heel			L.Knee.Lat			R.Knee.Lat			L.Knee.Med			R.Knee.Med			L.Thigh.Upper			R.Thigh.Upper			L.ASIS			R.ASIS			V.Sacral			L.Acromium			R.Acromium			C7			L.Elbow			R.Elbow			L.Wrist.Lat			R.Wrist.Lat
		X1	Y1	Z1	X2	Y2	Z2	X3	Y3	Z3	X4	Y4	Z4	X5	Y5	Z5	X6	Y6	Z6	X7	Y7	Z7	X8	Y8	Z8	X9	Y9	Z9	X10	Y10	Z10	X11	Y11	Z11	X12	Y12	Z12	X13	Y13	Z13	X14	Y14	Z14	X15	Y15	Z15	X16	Y16	Z16	X17	Y17	Z17	X18	Y18	Z18	X19	Y19	Z19	X20	Y20	Z20	X21	Y21	Z21	X22	Y22	Z22	X23	Y23	Z23	X24	Y24	Z24

164	0.652	0.027656686	0.045711321	-0.17522646	-0.75462502	0.036533513	-0.089986887	-0.10527702	0.066951616	-0.21186544	-0.81439946	0.15980652	-0.0500197	-0.10429146	0.089364113	-0.12748155	-0.76970967	0.15495189	-0.1249826	-0.1717701	0.03549501	-0.17228559	-0.85556183	0.18097452	-0.10486937	-0.12902758	0.45830321	-0.23775901	-0.51251622	0.41039061	0.0020812331	-0.12572974	0.43947155	-0.11735986	-0.46771587	0.39759337	-0.11837291	-0.28007119	0.81067553	-0.30136568	-0.42539629	0.7969499	0.061292959	-0.25979257	0.90913944	-0.21591313	-0.32285374	0.88507867	0.020359755	-0.4844295	0.90883239	-0.15516946	-0.35958423	1.3695536	-0.28198254	-0.37082396	1.3595621	0.045025448	-0.4543148	1.3930988	-0.12690892	-0.50261875	1.0637075	-0.332613	-0.33688191	1.0011906	0.092211843	-0.46003218	0.83171961	-0.38750273	-0.10144012	0.9272828	0.043799037
165	0.656	0.028260474	0.044955198	-0.17488379	-0.75215411	0.036587951	-0.089865051	-0.10483576	0.066910183	-0.21152285	-0.80507173	0.1634983	-0.048913088	-0.10373455	0.089036047	-0.12707808	-0.75965528	0.15654239	-0.1232185	-0.17152987	0.035647567	-0.17217985	-0.8445813	0.18649309	-0.10428015	-0.12402091	0.4580511	-0.23768614	-0.50069311	0.40994106	0.0036140714	-0.12053633	0.43958166	-0.11731888	-0.45459603	0.39558055	-0.11623554	-0.27298105	0.81190893	-0.30177705	-0.41641572	0.79665405	0.06116642	-0.25274709	0.910813	-0.21664314	-0.31437862	0.88550318	0.019207227	-0.47708344	0.90980951	-0.1547233	-0.35267579	1.3703599	-0.28238288	-0.36380512	1.3605796	0.044388234	-0.4477176	1.393913	-0.12775363	-0.49468593	1.0640937	-0.33241574	-0.33195857	1.002061	0.091538179	-0.45237563	0.83214408	-0.38741306	-0.096974224	0.92632807	0.043556572
166	0.66	0.028779552	0.044339823	-0.17439559	-0.74923332	0.037115758	-0.089681397	-0.10444309	0.066859971	-0.21118651	-0.79538532	0.16705671	-0.047558394	-0.10333506	0.088686308	-0.12669228	-0.74935402	0.15800841	-0.12136128	-0.17133513	0.035759985	-0.17208199	-0.83316618	0.19203705	-0.10330354	-0.11935357	0.45767029	-0.23763504	-0.48887326	0.40943411	0.0051848645	-0.11564774	0.43944119	-0.1172211	-0.44120488	0.39336165	-0.11400367	-0.26595733	0.81305087	-0.30226414	-0.40747522	0.79639571	0.060983358	-0.24579591	0.91246371	-0.21739051	-0.30596532	0.88596945	0.018037529	-0.46990192	0.91080584	-0.15441365	-0.34582278	1.3711974	-0.28275769	-0.35688882	1.3615695	0.043767484	-0.44109133	1.3946498	-0.12842845	-0.4867246	1.0644937	-0.33214055	-0.32710309	1.0029307	0.090874952	-0.44459655	0.8325829	-0.38730762	-0.092569318	0.92532536	0.043378747
167	0.664	0.029241895	0.043833233	-0.17390842	-0.74575427	0.03825747	-0.08944037	-0.10405238	0.066792079	-0.21084555	-0.78540323	0.17044627	-0.046017791	-0.10302859	0.088303404	-0.12636073	-0.73881501	0.15945707	-0.11950275	-0.17116538	0.035849088	-0.17196353	-0.82136997	0.19768038	-0.1018625	-0.11495924	0.45721192	-0.23759005	-0.47707868	0.40888781	0.0067891873	-0.11105888	0.43908887	-0.11704071	-0.42759744	0.39099722	-0.11169315	-0.25892494	0.81409676	-0.30274692	-0.39859681	0.79615962	0.060748373	-0.23892747	0.91406895	-0.21816389	-0.29764574	0.88647155	0.016875402	-0.46290075	0.91177217	-0.15409632	-0.33902798	1.37206	-0.28312759	-0.35005454	1.3625454	0.043171271	-0.4344505	1.3953269	-0.1289263	-0.47876553	1.0648999	-0.33182423	-0.32231957	1.003799	0.090217327	-0.43668941	0.83302913	-0.38718536	-0.08821446	0.92427804	0.043264738
168	0.668	0.029634369	0.043418118	-0.17353983	-0.74166514	0.039974287	-0.089179205	-0.10367818	0.066701169	-0.2105185	-0.77511976	0.17369866	-0.044368984	-0.10267004	0.087923247	-0.12603386	-0.72814004	0.16110844	-0.11778341	-0.17102199	0.035916798	-0.17182422	-0.80932826	0.20340567	-0.099959694	-0.11077428	0.4567195	-0.23753223	-0.46532997	0.40832266	0.0084240479	-0.10680977	0.43856406	-0.11680432	-0.41385751	0.38855338	-0.10931488	-0.25184737	0.81506135	-0.30317997	-0.3897858	0.79593799	0.060466799	-0.23213334	0.91560506	-0.21896805	-0.28945952	0.88700847	0.015754716	-0.45605557	0.91266072	-0.15370875	-0.33226313	1.3729465	-0.28349754	-0.34327183	1.3635312	0.042609185	-0.42782879	1.3959698	-0.12932688	-0.47084522	1.0653092	-0.33152223	-0.31761264	1.004674	0.089560103	-0.42864878	0.83348044	-0.38705441	-0.083920855	0.92318722	0.043217114
169	0.672	0.02993619	0.043080348	-0.17331792	-0.73689167	0.042121476	-0.088885598	-0.10336581	0.066586751	-0.21024184	-0.76452831	0.17690252	-0.042700752	-0.10226455	0.0875761	-0.12572353	-0.71750425	0.16322158	-0.11634968	-0.17091695	0.035958833	-0.17168748	-0.79708314	0.20911319	-0.097725325	-0.10675317	0.45622076	-0.23745457	-0.4536414	0.40776699	0.010069677	-0.10296155	0.43790863	-0.1165758	-0.40009371	0.38609857	-0.10691978	-0.2447912	0.81599305	-0.3036145	-0.38103343	0.79574959	0.060162115	-0.22541235	0.91705769	-0.2198013	-0.28144369	0.88758459	0.014709033	-0.4493068	0.91346347	-0.15335671	-0.32550541	1.3738601	-0.28386579	-0.33652112	1.3645431	0.042092786	-0.42124943	1.3966034	-0.12970421	-0.4629751	1.0657195	-0.33127297	-0.31296983	1.0055611	0.088899253	-0.4204689	0.8339372	-0.386926	-0.079713098	0.92205494	0.043246351
170	0.676	0.030147126	0.042805789	-0.17319189	-0.73124908	0.044584952	-0.088414329	-0.10314735	0.066457936	-0.21003795	-0.7536862	0.1801507	-0.041107243	-0.10198239	0.087264061	-0.12552273	-0.70703924	0.16593274	-0.11525515	-0.17085787	0.035974586	-0.1715802	-0.78470696	0.21467567	-0.095361433	-0.10286356	0.45572758	-0.23736721	-0.44201005	0.40725161	0.011687268	-0.099524001	0.43716672	-0.11640062	-0.38639135	0.3837307	-0.10462149	-0.23786067	0.81695065	-0.30413397	-0.37232396	0.79564531	0.059884163	-0.21877357	0.91842152	-0.22066081	-0.2736117	0.88820943	0.01375321	-0.44258438	0.91422279	-0.15308323	-0.3187471	1.3748098	-0.28423145	-0.32979667	1.3655835	0.041630166	-0.41471617	1.397253	-0.13009344	-0.45511922	1.0661279	-0.3311485	-0.30835856	1.0064583	0.088231658	-0.412153	0.83440132	-0.3868034	-0.075620204	0.92088441	0.043360398
171	0.68	0.030288427	0.042582911	-0.17309612	-0.72444918	0.047323319	-0.087524745	-0.10301551	0.066333445	-0.20989919	-0.74269313	0.18351164	-0.039675936	-0.10190791	0.086990639	-0.1254613	-0.69672857	0.16913133	-0.11439313	-0.17083971	0.035971515	-0.17151298	-0.77252894	0.21994663	-0.093084817	-0.099076375	0.45524738	-0.2372885	-0.43042557	0.40680363	0.013234023	-0.096413602	0.43638339	-0.11626955	-0.37275159	0.3816093	-0.10252571	-0.23111015	0.81797148	-0.30476724	-0.36363504	0.79569092	0.059688468	-0.21222044	0.91969509	-0.22153773	-0.26593138	0.88889996	0.012869094	-0.43582228	0.91499339	-0.15274311	-0.31198641	1.3758063	-0.28459422	-0.32309638	1.3666504	0.041224633	-0.40821776	1.3979457	-0.1305003	-0.44720342	1.0665367	-0.33127277	-0.30376201	1.0073656	0.087553489	-0.4037172	0.83488157	-0.38667401	-0.071656048	0.91968309	0.043559587
172	0.684	0.030386922	0.042404842	-0.17300236	-0.716201	0.050286736	-0.08602529	-0.10293034	0.066235394	-0.2097979	-0.73163865	0.1870315	-0.038478686	-0.10195324	0.08677161	-0.12547686	-0.68642962	0.17253953	-0.11359033	-0.17084814	0.035962077	-0.17147437	-0.76093624	0.22472297	-0.091167926	-0.095374315	0.45478819	-0.23723727	-0.4188958	0.40645487	0.01468114	-0.093535837	0.43559622	-0.11616993	-0.35912411	0.37994704	-0.10066193	-0.2245409	0.81906674	-0.30548722	-0.35495304	0.79592917	0.059601713	-0.20572593	0.92087951	-0.22240978	-0.25833403	0.88967959	0.012014196	-0.42897385	0.91580755	-0.15222717	-0.30522261	1.3768562	-0.28495428	-0.31641454	1.367747	0.040878894	-0.40173693	1.398709	-0.13091789	-0.43918796	1.066958	-0.33164862	-0.29920457	1.0082871	0.086852934	-0.395179	0.8353945	-0.38651583	-0.067805363	0.91846117	0.04383869
173	0.688	0.030462956	0.042268541	-0.17291943	-0.706344	0.053338346	-0.083885682	-0.10285269	0.066177472	-0.20970813	-0.72057742	0.19071761	-0.03757384	-0.10200713	0.086615171	-0.12551588	-0.67595167	0.17590086	-0.11276759	-0.17086835	0.03595622	-0.17144407	-0.74994814	0.22876129	-0.089964309	-0.091763341	0.45435323	-0.23722824	-0.4074364	0.40625162	0.016018328	-0.090893142	0.43482636	-0.11615618	-0.34555461	0.3789322	-0.099041731	-0.21814022	0.82022871	-0.30625116	-0.34630454	0.79635147	0.059603898	-0.1992367	0.92197154	-0.22325558	-0.25076286	0.8905687	0.011157638	-0.42205943	0.9166976	-0.15159902	-0.29845984	1.3779616	-0.28531259	-0.30974698	1.3688831	0.040593996	-0.39525073	1.3995702	-0.13133535	-0.43113561	1.067413	-0.33201785	-0.29471714	1.0092265	0.086111365	-0.38653747	0.83595301	-0.3863209	-0.064043068	0.91722506	0.044188971
174	0.692	0.030527078	0.042169851	-0.17286402	-0.69492022	0.0562839	-0.081216819	-0.10277346	0.066151563	-0.20962469	-0.70951663	0.19448618	-0.037004082	-0.10201499	0.086517483	-0.12556051	-0.66510271	0.17906178	-0.11195776	-0.17089077	0.035956809	-0.1714115	-0.73919833	0.23189365	-0.089702264	-0.088266918	0.4539397	-0.23726661	-0.39602846	0.40624114	0.017253988	-0.088547529	0.43408174	-0.1163099	-0.3322135	0.37863549	-0.097706594	-0.21190755	0.82143906	-0.30702449	-0.3377476	0.79691925	0.059646682	-0.19270557	0.92295854	-0.22406903	-0.24319021	0.89157621	0.01029589	-0.41517796	0.91772368	-0.15094224	-0.29170389	1.3791203	-0.28566796	-0.30309887	1.3700694	0.040364326	-0.38873115	1.4005534	-0.13174023	-0.42313878	1.0679181	-0.3321261	-0.29030501	1.010196	0.08532988	-0.37775231	0.83655479	-0.38611225	-0.060364136	0.91597726	0.044603261
175	0.696	0.030581875	0.042097974	-0.17284399	-0.68214492	0.058961335	-0.078185513	-0.10270486	0.066130701	-0.20956608	-0.69837257	0.19816381	-0.036763012	-0.10196139	0.086471669	-0.12560152	-0.65375318	0.18196711	-0.11122232	-0.17091162	0.035960904	-0.17137977	-0.72827066	0.23411195	-0.090265475	-0.084907448	0.45354431	-0.23735319	-0.38461227	0.40644663	0.018420668	-0.086488128	0.43337216	-0.11663339	-0.31922506	0.37899329	-0.09666841	-0.20585288	0.82268128	-0.30778361	-0.32932251	0.7976075	0.059692094	-0.18613137	0.92384741	-0.22483779	-0.23556541	0.89269935	0.0094173574	-0.4083872	0.91891219	-0.15028073	-0.28495219	1.3803278	-0.286015	-0.29647858	1.3713095	0.040181553	-0.38215558	1.4016773	-0.13212064	-0.41520062	1.0684752	-0.33203316	-0.28595601	1.0112233	0.084537576	-0.36874774	0.83718111	-0.38593426	-0.056783514	0.91471718	0.045080664
176	0.7	0.030626071	0.042038667	-0.17285823	-0.66832567	0.061298064	-0.074969252	-0.10265302	0.066093638	-0.20955226	-0.68695094	0.20159312	-0.036769035	-0.10186899	0.086469888	-0.12564317	-0.64190265	0.18462496	-0.11060395	-0.17093136	0.035963921	-0.17135462	-0.71691319	0.23554812	-0.091291087	-0.081689099	0.45316842	-0.23749935	-0.37312061	0.40687444	0.019542503	-0.084581419	0.43272841	-0.11703201	-0.30656755	0.37986771	-0.09588816	-0.19997243	0.82393268	-0.30849661	-0.32103782	0.79841444	0.059727302	-0.17958483	0.92470412	-0.22551539	-0.22785517	0.89392344	0.0085225797	-0.40159328	0.92017218	-0.14965517	-0.27819427	1.3815855	-0.28634511	-0.28988753	1.3725973	0.040040526	-0.37551603	1.4029496	-0.13246767	-0.40726263	1.0690818	-0.33194772	-0.28163913	1.0123297	0.083756585	-0.35946117	0.83780908	-0.38582504	-0.053316329	0.91343959	0.045622965
177	0.704	0.030658699	0.041983444	-0.17290008	-0.65376408	0.06331403	-0.071724678	-0.10261428	0.066041819	-0.20958224	-0.6750407	0.20468126	-0.03690168	-0.10178325	0.086502542	-0.12570185	-0.62962776	0.18701053	-0.11011074	-0.17095562	0.035964647	-0.17133446	-0.70510385	0.23641791	-0.092385824	-0.078609873	0.45282148	-0.23772307	-0.36149464	0.40754729	0.02057021	-0.082649677	0.4322004	-0.11740071	-0.29414161	0.38111363	-0.095319792	-0.19424088	0.8251323	-0.30910662	-0.31289776	0.79934527	0.059746568	-0.17315011	0.92560923	-0.22605568	-0.22018786	0.89522432	0.0077130562	-0.39465494	0.9213468	-0.14911383	-0.27142285	1.3828984	-0.28664965	-0.28331906	1.3739282	0.039936825	-0.36881831	1.4043566	-0.13277486	-0.39929771	1.0697387	-0.33194708	-0.27731186	1.0135174	0.082988111	-0.34991065	0.83844943	-0.38576751	-0.049969546	0.91214198	0.046227968
